<svg width="30" height="30" viewBox="0 0 30 30" fill="none" xmlns="http://www.w3.org/2000/svg">
<path fill-rule="evenodd" clip-rule="evenodd" d="M15 2.91663C8.32656 2.91663 2.91666 8.32652 2.91666 15C2.91666 21.6734 8.32656 27.0833 15 27.0833C21.6734 27.0833 27.0833 21.6734 27.0833 15C27.0833 8.32652 21.6734 2.91663 15 2.91663ZM0.416664 15C0.416664 6.94581 6.94584 0.416626 15 0.416626C23.0541 0.416626 29.5833 6.94581 29.5833 15C29.5833 23.0541 23.0541 29.5833 15 29.5833C6.94584 29.5833 0.416664 23.0541 0.416664 15Z" fill="white"/>
<path fill-rule="evenodd" clip-rule="evenodd" d="M15 5.75C15.6904 5.75 16.25 6.30964 16.25 7V15.2291C16.25 15.2292 16.25 15.229 16.25 15.2291C16.2502 15.6047 16.3995 15.9651 16.6651 16.2306L19.8839 19.4494C20.372 19.9376 20.372 20.7291 19.8839 21.2172C19.3957 21.7054 18.6043 21.7054 18.1161 21.2172L14.8976 17.9987C14.8975 17.9986 14.8976 17.9987 14.8976 17.9987C14.1631 17.2643 13.7502 16.2682 13.75 15.2296V7C13.75 6.30964 14.3096 5.75 15 5.75Z" fill="white"/>
</svg>
