<svg width="22" height="31" viewBox="0 0 22 31" fill="none" xmlns="http://www.w3.org/2000/svg">
<path d="M0.875 10.8735C0.875 13.7265 2.0225 16.314 3.875 18.2085V28.875C3.87405 29.131 3.93878 29.383 4.063 29.6069C4.18722 29.8308 4.36678 30.019 4.58452 30.1537C4.80226 30.2884 5.05091 30.365 5.30669 30.3761C5.56248 30.3873 5.81685 30.3327 6.0455 30.2175L11.375 27.552L16.7045 30.216C16.9326 30.3314 17.1866 30.3861 17.442 30.3748C17.6973 30.3635 17.9455 30.2866 18.1625 30.1515C18.605 29.877 18.875 29.3955 18.875 28.875V18.21C20.7983 16.2525 21.8757 13.6178 21.875 10.8735C21.875 5.085 17.165 0.375 11.375 0.375C5.585 0.375 0.875 5.085 0.875 10.8735ZM12.0455 24.5325C11.8371 24.4282 11.6073 24.3739 11.3743 24.3739C11.1412 24.3739 10.9114 24.4282 10.703 24.5325L6.875 26.448V20.3475C8.2415 20.9985 9.764 21.375 11.375 21.375C12.986 21.375 14.5085 21 15.875 20.3475V26.4465L12.0455 24.5325ZM11.375 3.375C15.509 3.375 18.875 6.738 18.875 10.8735C18.873 12.8622 18.0822 14.7688 16.6762 16.1751C15.2701 17.5815 13.3637 18.3726 11.375 18.375C7.2395 18.375 3.875 15.0105 3.875 10.8735C3.87738 8.88525 4.66837 6.97913 6.07442 5.57336C7.48047 4.16759 9.38675 3.37698 11.375 3.375Z" fill="white"/>
</svg>
