<svg width="50" height="50" viewBox="0 0 50 50" fill="none" xmlns="http://www.w3.org/2000/svg">
<g id="Image" clip-path="url(#clip0_39_91)">
<g id="Group 15">
<g id="Subtract">
<path d="M7.6699 19.563H4.36893C1.95604 19.563 0 21.519 0 23.9319V50.0484H2.52427V24.9028C2.52427 23.2942 3.8283 21.9902 5.43689 21.9902H7.6699V19.563Z" fill="white"/>
<path d="M42.233 21.9902H44.5631C46.1717 21.9902 47.4757 23.2942 47.4757 24.9028V50.0484H50V23.9319C50 21.519 48.044 19.563 45.6311 19.563H42.233V21.9902Z" fill="white"/>
</g>
<rect id="Rectangle 6" x="7.57281" y="30.0486" width="34.7573" height="2.52427" fill="white"/>
<path id="Vector 1" d="M15.1461 11.6019C9.94222 17 9.19141 26.1489 9.46649 30.0485H38.0587C38.0587 23.9903 41.1332 18.0097 42.6704 15.7767C45.583 10.4175 45.9875 3.02589 45.8257 0H16.651C17.8549 6.48544 16.1493 10.4369 15.1461 11.6019Z" fill="white"/>
<rect id="Rectangle 7" x="47.5728" y="47.5242" width="2.52427" height="45.0485" transform="rotate(90 47.5728 47.5242)" fill="white"/>
<rect id="Rectangle 8" x="14.369" y="36.7476" width="2.52427" height="6.50485" transform="rotate(90 14.369 36.7476)" fill="white"/>
<rect id="Rectangle 9" x="24.2719" y="36.7476" width="2.52427" height="6.50485" transform="rotate(90 24.2719 36.7476)" fill="white"/>
<rect id="Rectangle 10" x="34.1747" y="36.7476" width="2.52427" height="6.50485" transform="rotate(90 34.1747 36.7476)" fill="#FF284C"/>
</g>
</g>
<defs>
<clipPath id="clip0_39_91">
<rect width="50" height="50" fill="white"/>
</clipPath>
</defs>
</svg>
