<svg width="58" height="58" viewBox="0 0 58 58" fill="none" xmlns="http://www.w3.org/2000/svg">
<g id="&#208;&#178;&#208;&#187;&#208;&#181;&#208;&#178;&#208;&#190;">
<path id="Ellipse 5" d="M29 1.00005C13.536 1.00005 1.00001 13.5361 1.00001 29C1.00001 44.464 13.536 57 29 57C44.464 57 57 44.464 57 29C57 13.5361 44.464 1.00005 29 1.00005Z" stroke="white" stroke-width="2"/>
<path id="Arrow 1" d="M20.6164 29.7071C20.2259 29.3166 20.2259 28.6834 20.6164 28.2929L26.9804 21.9289C27.3709 21.5384 28.0041 21.5384 28.3946 21.9289C28.7851 22.3195 28.7851 22.9526 28.3946 23.3431L22.7377 29L28.3946 34.6569C28.7851 35.0474 28.7851 35.6805 28.3946 36.0711C28.0041 36.4616 27.3709 36.4616 26.9804 36.0711L20.6164 29.7071ZM36.6765 30L21.3235 30L21.3235 28L36.6765 28L36.6765 30Z" fill="white"/>
</g>
</svg>
