<svg width="58" height="58" viewBox="0 0 58 58" fill="none" xmlns="http://www.w3.org/2000/svg">
<g id="&#208;&#178;&#208;&#191;&#209;&#128;&#208;&#176;&#208;&#178;&#208;&#190;">
<path id="Ellipse 5" d="M29 1.00005C44.464 1.00005 57 13.5361 57 29C57 44.464 44.464 57 29 57C13.536 57 0.999999 44.464 0.999999 29C0.999998 13.5361 13.536 1.00005 29 1.00005Z" fill="white" fill-opacity="0.2" stroke="white" stroke-width="2"/>
<path id="Arrow 1" d="M37.3836 29.7071C37.7741 29.3166 37.7741 28.6834 37.3836 28.2929L31.0196 21.9289C30.6291 21.5384 29.9959 21.5384 29.6054 21.9289C29.2149 22.3195 29.2149 22.9526 29.6054 23.3431L35.2623 29L29.6054 34.6569C29.2149 35.0474 29.2149 35.6805 29.6054 36.0711C29.9959 36.4616 30.6291 36.4616 31.0196 36.0711L37.3836 29.7071ZM21.3235 30L36.6765 30L36.6765 28L21.3235 28L21.3235 30Z" fill="white"/>
</g>
</svg>
