<svg width="19" height="18" viewBox="0 0 19 18" fill="none" xmlns="http://www.w3.org/2000/svg">
<path fill-rule="evenodd" clip-rule="evenodd" d="M15.6362 2.65534C14.8392 1.8531 13.891 1.21699 12.8464 0.783856C11.8018 0.350721 10.6816 0.129173 9.55079 0.132047C4.80896 0.132047 0.948792 3.99126 0.946875 8.735C0.946875 10.2511 1.34267 11.7308 2.09496 13.036L0.875 17.4932L5.43571 16.2963C6.69725 16.983 8.11061 17.3431 9.54696 17.3437H9.55079C14.2917 17.3437 18.1518 13.4845 18.1538 8.74075C18.157 7.61039 17.9362 6.49058 17.5041 5.44606C17.072 4.40154 16.4371 3.45303 15.6362 2.65534ZM9.55079 15.8918H9.54792C8.26712 15.892 7.0099 15.5474 5.90817 14.8942L5.6475 14.739L2.94117 15.4491L3.66279 12.8108L3.49317 12.5405C2.77709 11.4005 2.39802 10.0813 2.39971 8.735C2.40163 4.79242 5.60917 1.58488 9.55367 1.58488C10.4931 1.58279 11.4236 1.76704 12.2913 2.12696C13.159 2.48688 13.9467 3.01533 14.6089 3.68171C15.2746 4.34492 15.8022 5.13349 16.1613 6.00184C16.5204 6.87018 16.7038 7.80109 16.7009 8.74075C16.699 12.6833 13.4915 15.8918 9.55079 15.8918ZM13.4733 10.5357C13.2576 10.4274 12.2015 9.908 12.0041 9.83613C11.8077 9.76425 11.6649 9.7288 11.5211 9.94346C11.3774 10.1581 10.9653 10.6421 10.8398 10.7858C10.7142 10.9296 10.5887 10.9468 10.374 10.8395C10.1593 10.7322 9.46646 10.505 8.64517 9.77288C8.00596 9.20267 7.57471 8.49925 7.44917 8.28363C7.32363 8.068 7.43575 7.95205 7.54404 7.84471C7.64083 7.74888 7.75871 7.59363 7.86604 7.46809C7.97338 7.34255 8.00883 7.25342 8.08071 7.10967C8.15258 6.96592 8.11713 6.84038 8.0625 6.73305C8.00883 6.62475 7.57854 5.56675 7.39933 5.13646C7.22587 4.71959 7.04858 4.77517 6.91633 4.76942C6.77937 4.76382 6.64229 4.76126 6.50521 4.76175C6.3962 4.76453 6.28895 4.7898 6.19017 4.83598C6.09139 4.88215 6.00321 4.94824 5.93117 5.03009C5.73375 5.24571 5.17888 5.76513 5.17888 6.82313C5.17888 7.88113 5.94937 8.90367 6.05671 9.04742C6.16404 9.19117 7.57279 11.3618 9.72904 12.2933C10.2427 12.5147 10.6433 12.6469 10.9548 12.7466C11.4694 12.9105 11.938 12.8865 12.3089 12.8319C12.7219 12.7705 13.5806 12.3125 13.7598 11.8103C13.939 11.3081 13.939 10.8778 13.8853 10.7878C13.8317 10.6977 13.687 10.643 13.4733 10.5357Z" fill="white"/>
</svg>
