<svg width="59" height="57" viewBox="0 0 59 57" fill="none" xmlns="http://www.w3.org/2000/svg">
<path fill-rule="evenodd" clip-rule="evenodd" d="M10.8245 3.25C8.81559 3.25 6.88899 4.04802 5.46851 5.46851C4.04802 6.88899 3.25 8.81559 3.25 10.8245V37.2978C3.25 39.3067 4.04802 41.2333 5.46851 42.6538C6.88899 44.0743 8.81559 44.8723 10.8245 44.8723H33.5515C33.545 44.2086 33.5988 43.3252 33.9043 41.7739C34.3001 39.764 35.0843 37.8018 37.7546 35.1315C37.7813 35.1048 37.8092 35.0793 37.8382 35.0551C39.4042 33.7502 40.7552 32.9095 42.106 32.4065C43.0476 32.0558 43.951 31.8836 44.8723 31.8107V10.8245C44.8723 8.81559 44.0743 6.88899 42.6538 5.46851C41.2333 4.04802 39.3067 3.25 37.2978 3.25H10.8245ZM3.70074 3.70074C5.59007 1.81141 8.15254 0.75 10.8245 0.75H37.2978C39.9697 0.75 42.5322 1.81141 44.4215 3.70074C46.3109 5.59007 47.3723 8.15254 47.3723 10.8245V33.0154C47.3723 33.7057 46.8126 34.2654 46.1223 34.2654C44.926 34.2654 43.9662 34.3815 42.9784 34.7493C41.9896 35.1175 40.8953 35.7672 39.4824 36.9394C37.1865 39.2465 36.6527 40.7564 36.3572 42.2569C36.0105 44.0177 36.0374 44.6266 36.0689 45.3387C36.0794 45.5759 36.0904 45.8245 36.0883 46.131C36.0835 46.8179 35.5253 47.3723 34.8383 47.3723H10.8245C8.15254 47.3723 5.59007 46.3109 3.70074 44.4215C1.81141 42.5322 0.75 39.9697 0.75 37.2978V10.8245C0.75 8.15254 1.81141 5.59007 3.70074 3.70074Z" fill="white"/>
<path fill-rule="evenodd" clip-rule="evenodd" d="M16.3397 12.0745C13.9841 12.0745 12.0744 13.9842 12.0744 16.3398C12.0744 18.6955 13.9841 20.6051 16.3397 20.6051C18.6954 20.6051 20.605 18.6955 20.605 16.3398C20.605 13.9842 18.6954 12.0745 16.3397 12.0745ZM9.57442 16.3398C9.57442 12.6034 12.6033 9.57452 16.3397 9.57452C20.0761 9.57452 23.105 12.6034 23.105 16.3398C23.105 20.0762 20.0761 23.1051 16.3397 23.1051C12.6033 23.1051 9.57442 20.0762 9.57442 16.3398Z" fill="white"/>
<path fill-rule="evenodd" clip-rule="evenodd" d="M32.8867 22.7373C33.6736 22.7357 34.4522 22.8982 35.1728 23.2143C35.8666 23.5186 36.4919 23.9589 37.0121 24.5089L44.9489 31.1455C45.0109 31.1125 45.0896 31.0708 45.192 31.0181C45.266 30.9801 45.4458 30.8884 45.6658 30.8413C45.9107 30.7889 46.3766 30.7592 46.808 31.0918C47.1839 31.3816 47.2961 31.7729 47.3352 31.9489C47.38 32.1504 47.3885 32.3522 47.3885 32.5154C47.3885 33.0735 47.0185 33.564 46.4819 33.7173L43.0439 34.6996C41.8671 35.1728 41.1613 35.534 40.5645 35.9598C39.953 36.3962 39.4016 36.9384 38.5615 37.8583C38.0454 38.4234 37.3109 39.7386 36.7655 41.3624C36.2229 42.9779 35.9495 44.6586 36.1505 45.9267C36.2077 46.2879 36.1039 46.656 35.8664 46.9341C35.6289 47.2122 35.2816 47.3723 34.9159 47.3723H10.8244C10.3297 47.3723 9.88145 47.0805 9.68129 46.628C9.48112 46.1756 9.56667 45.6476 9.89948 45.2815L28.7088 24.5904L28.7089 24.5903C29.2383 24.0081 29.8832 23.5426 30.6026 23.2236C31.3219 22.9045 32.0998 22.7389 32.8867 22.7373ZM42.4093 32.2808L35.3488 26.3769C35.3064 26.3415 35.2665 26.3033 35.2292 26.2627C34.9322 25.9387 34.571 25.6802 34.1685 25.5037C33.7661 25.3271 33.3313 25.2364 32.8918 25.2373C32.4523 25.2382 32.0179 25.3307 31.6162 25.5089C31.2144 25.687 30.8542 25.947 30.5586 26.2721L13.65 44.8723H33.5859C33.6083 43.4218 33.9477 41.9 34.3956 40.5664C34.9932 38.7872 35.8662 37.1024 36.7155 36.1724C37.5754 35.2308 38.274 34.523 39.1124 33.9248C39.9558 33.323 40.8865 32.8699 42.1742 32.3548C42.2138 32.339 42.2541 32.3252 42.2951 32.3135L42.4093 32.2808ZM46.3406 33.2387C46.3421 33.2381 46.3434 33.2375 46.3446 33.2369C46.3492 33.2349 46.3516 33.2336 46.3517 33.2335C46.3517 33.2334 46.3495 33.2344 46.3446 33.2367C46.3434 33.2373 46.3421 33.238 46.3406 33.2387Z" fill="white"/>
<path fill-rule="evenodd" clip-rule="evenodd" d="M46.1242 54.4472C51.6405 54.4472 56.1122 49.9754 56.1122 44.4592C56.1122 38.943 51.6405 34.4712 46.1242 34.4712C40.608 34.4712 36.1363 38.943 36.1363 44.4592C36.1363 49.9754 40.608 54.4472 46.1242 54.4472ZM46.1242 56.9472C53.0212 56.9472 58.6122 51.3561 58.6122 44.4592C58.6122 37.5623 53.0212 31.9712 46.1242 31.9712C39.2273 31.9712 33.6363 37.5623 33.6363 44.4592C33.6363 51.3561 39.2273 56.9472 46.1242 56.9472Z" fill="white"/>
<path fill-rule="evenodd" clip-rule="evenodd" d="M46.1243 50.5958C45.4339 50.5958 44.8743 50.0361 44.8743 49.3458L44.8743 43.6762L43.2075 45.343C42.7193 45.8312 41.9279 45.8312 41.4397 45.343C40.9515 44.8549 40.9515 44.0634 41.4397 43.5753L45.2402 39.7747C45.2403 39.7747 45.2403 39.7746 45.2404 39.7746C45.3602 39.6547 45.4984 39.5643 45.6458 39.5033C45.7932 39.4422 45.9548 39.4085 46.1243 39.4085C46.4681 39.4085 46.7795 39.5473 47.0055 39.7719C47.0064 39.7728 47.0073 39.7737 47.0082 39.7746C47.0083 39.7747 47.0084 39.7748 47.0085 39.7749L50.8089 43.5753C51.297 44.0634 51.297 44.8549 50.8089 45.343C50.3207 45.8312 49.5292 45.8312 49.0411 45.343L47.3743 43.6762L47.3743 49.3458C47.3743 50.0361 46.8146 50.5958 46.1243 50.5958Z" fill="white"/>
</svg>
