<svg width="65" height="59" viewBox="0 0 65 59" fill="none" xmlns="http://www.w3.org/2000/svg">
<path fill-rule="evenodd" clip-rule="evenodd" d="M62.0802 38.497L62.074 38.4913C61.7693 38.2087 61.0807 38.0942 60.4834 38.5868L60.4756 38.5933L49.8946 47.2481C49.8935 47.249 49.8924 47.2499 49.8913 47.2508C48.1458 48.6871 45.9686 49.459 43.7219 49.459H30.1667C27.725 49.459 25.8333 47.4427 25.8333 45.084C25.8333 42.7253 27.725 40.709 30.1667 40.709H39.1385C39.8767 40.709 40.4064 40.1856 40.4863 39.6922C40.6245 38.8305 39.9889 38.209 39.3333 38.209H21C18.4984 38.209 16.0697 39.0892 14.1043 40.7161C14.1041 40.7163 14.1046 40.716 14.1043 40.7161L8.0829 45.709H1.5V55.709H41.7167C42.7987 55.709 43.8561 55.3359 44.7182 54.6324C44.7184 54.6322 44.7187 54.632 44.719 54.6318L62.0466 40.4499C62.6208 39.9825 62.6779 39.0476 62.0802 38.497ZM46.3 56.5684C44.9937 57.6348 43.3781 58.209 41.7167 58.209H0.833333C-0.175 58.209 -1 57.3652 -1 56.334V45.084C-1 44.0527 -0.175 43.209 0.833333 43.209H7.18125L12.5094 38.791C14.9156 36.7988 17.9063 35.709 21 35.709H39.3333C41.5677 35.709 43.3323 37.748 42.9542 40.0918C42.6563 41.9316 40.9604 43.209 39.1385 43.209H30.1667C29.1583 43.209 28.3333 44.0527 28.3333 45.084C28.3333 46.1152 29.1583 46.959 30.1667 46.959H43.7219C45.3948 46.959 47.0104 46.3848 48.3052 45.3184L58.8927 36.6582C60.3135 35.4863 62.4219 35.4043 63.774 36.6582C65.5042 38.252 65.3667 40.9707 63.625 42.3887L46.3 56.5684Z" fill="white"/>
<path fill-rule="evenodd" clip-rule="evenodd" d="M44.0074 8.76868H19.5749V23.7612C19.5749 24.5896 20.2465 25.2612 21.0749 25.2612H42.5074C43.3358 25.2612 44.0074 24.5896 44.0074 23.7612V8.76868ZM17.0749 6.26868V23.7612C17.0749 25.9704 18.8658 27.7612 21.0749 27.7612H42.5074C44.7165 27.7612 46.5074 25.9704 46.5074 23.7612V6.26868H17.0749Z" fill="white"/>
<path fill-rule="evenodd" clip-rule="evenodd" d="M23.3978 12.4921C23.3978 11.8017 23.9574 11.2421 24.6478 11.2421H38.8566C39.547 11.2421 40.1066 11.8017 40.1066 12.4921C40.1066 13.1824 39.547 13.7421 38.8566 13.7421H24.6478C23.9574 13.7421 23.3978 13.1824 23.3978 12.4921Z" fill="white"/>
<path fill-rule="evenodd" clip-rule="evenodd" d="M44.4718 2.5H19.0541C18.2256 2.5 17.5541 3.17157 17.5541 4V4.45071C17.5541 5.27913 18.2256 5.95071 19.0541 5.95071H44.4718C45.3002 5.95071 45.9718 5.27913 45.9718 4.4507V4C45.9718 3.17157 45.3002 2.5 44.4718 2.5ZM19.0541 0C16.8449 0 15.0541 1.79086 15.0541 4V4.45071C15.0541 6.65984 16.8449 8.45071 19.0541 8.45071H44.4718C46.6809 8.45071 48.4718 6.65984 48.4718 4.4507V4C48.4718 1.79086 46.6809 0 44.4718 0H19.0541Z" fill="white"/>
</svg>
