<svg width="59" height="63" viewBox="0 0 59 63" fill="none" xmlns="http://www.w3.org/2000/svg">
<path fill-rule="evenodd" clip-rule="evenodd" d="M25.1746 0.881966C25.5266 0.706011 25.9408 0.706011 26.2927 0.881966L50.5743 13.0228C50.9978 13.2345 51.2653 13.6673 51.2653 14.1408V38.4224C51.2653 38.8909 51.0033 39.3201 50.5866 39.5342L45.5435 42.1258C45.2413 42.2811 44.8889 42.3067 44.5674 42.1967L35.6463 39.1437L37.7417 44.9062C37.961 45.5091 37.6882 46.1801 37.1104 46.459L26.2771 51.6889C25.9283 51.8573 25.5211 51.8545 25.1746 51.6813L0.893036 39.5404C0.469556 39.3287 0.202053 38.8959 0.202053 38.4224V14.1408C0.202053 13.6673 0.469556 13.2345 0.893036 13.0228L25.1746 0.881966ZM2.70205 14.9133V37.6499L25.7433 49.1705L35.0062 44.6988L32.4037 37.5421C32.2392 37.0897 32.3491 36.5831 32.6862 36.2395C33.0233 35.8959 33.5278 35.7764 33.9832 35.9323L44.8738 39.6592L48.7653 37.6594V14.9133L25.7337 3.39754L2.70205 14.9133Z" fill="white"/>
<path fill-rule="evenodd" clip-rule="evenodd" d="M38.9925 7.51139C39.3012 8.12886 39.051 8.8797 38.4335 9.18844L16.3879 20.2112L25.7337 24.8841L49.4563 13.0228C50.0737 12.714 50.8246 12.9643 51.1333 13.5818C51.442 14.1993 51.1918 14.9501 50.5743 15.2588L26.9837 27.0542V50.5632C26.9837 51.2536 26.424 51.8132 25.7337 51.8132C25.0433 51.8132 24.4837 51.2536 24.4837 50.5632V27.0542L13.0451 21.3349C13.037 21.3309 13.0289 21.3269 13.0208 21.3227L0.893035 15.2588C0.275562 14.9501 0.0252817 14.1993 0.334018 13.5818C0.642755 12.9643 1.3936 12.714 2.01107 13.0228L13.5929 18.8137L37.3154 6.95237C37.9329 6.64363 38.6838 6.89391 38.9925 7.51139Z" fill="white"/>
<path fill-rule="evenodd" clip-rule="evenodd" d="M32.4144 35.9509C32.7592 35.6061 33.2729 35.4933 33.7304 35.6618L57.9809 44.5962C58.4791 44.7797 58.8069 45.2579 58.7986 45.7887C58.7903 46.3195 58.4477 46.7872 57.944 46.955L50.0894 49.5728C50.0894 49.5728 50.0894 49.5728 50.0894 49.5728C49.1456 49.8874 48.2879 50.4174 47.5844 51.1209C46.881 51.8244 46.3509 52.682 46.0364 53.6259C46.0363 53.6259 46.0363 53.6259 46.0363 53.6259L43.4186 61.4805C43.2507 61.9841 42.7831 62.3268 42.2523 62.3351C41.7214 62.3434 41.2433 62.0155 41.0598 61.5174L32.1254 37.2669C31.9568 36.8094 32.0697 36.2956 32.4144 35.9509ZM35.4075 38.944L42.1736 57.3091L43.6646 52.8354L43.6646 52.8354C44.1019 51.5233 44.8387 50.3311 45.8167 49.3531C46.7946 48.3752 47.9869 47.6384 49.2989 47.201L49.299 47.201L53.7726 45.7101L35.4075 38.944Z" fill="white"/>
</svg>
